<svg xmlns="http://www.w3.org/2000/svg" viewBox="0 0 900 1125">
  <defs>
    <linearGradient id="bg" x1="0" y1="0" x2="1" y2="1"><stop stop-color="#d9d0c4"/><stop offset=".55" stop-color="#aaa79f"/><stop offset="1" stop-color="#6d756f"/></linearGradient>
    <radialGradient id="petal" cx="40%" cy="30%" r="75%"><stop stop-color="#fffdf7"/><stop offset=".65" stop-color="#ded8ce"/><stop offset="1" stop-color="#8f938e"/></radialGradient>
    <filter id="grain"><feTurbulence baseFrequency=".78" numOctaves="4" seed="4"/><feColorMatrix values="1 0 0 0 0 0 1 0 0 0 0 0 1 0 0 0 0 0 .055 0"/></filter>
    <filter id="blur"><feGaussianBlur stdDeviation="28"/></filter>
  </defs>
  <rect width="900" height="1125" fill="url(#bg)"/>
  <circle cx="702" cy="238" r="280" fill="#f1ece4" opacity=".44" filter="url(#blur)"/>
  <path d="M266 1180C308 850 414 520 666 120" fill="none" stroke="#242d28" stroke-width="13" stroke-linecap="round"/>
  <g fill="url(#petal)" stroke="#515a54" stroke-width="2"><ellipse cx="650" cy="205" rx="165" ry="88" transform="rotate(-24 650 205)"/><ellipse cx="554" cy="388" rx="154" ry="82" transform="rotate(18 554 388)"/><ellipse cx="432" cy="582" rx="138" ry="74" transform="rotate(-31 432 582)"/></g>
  <g fill="#252e29"><circle cx="650" cy="205" r="30"/><circle cx="554" cy="388" r="27"/><circle cx="432" cy="582" r="24"/></g>
  <path d="M285 870C148 752 58 780 0 900C140 982 250 956 285 870Z" fill="#525f57"/>
  <path d="M470 966C615 850 748 858 880 970C730 1050 594 1047 470 966Z" fill="#77847a" opacity=".82"/>
  <rect width="900" height="1125" filter="url(#grain)" opacity=".9"/>
</svg>
