<svg xmlns="http://www.w3.org/2000/svg" viewBox="0 0 900 1125">
  <defs>
    <linearGradient id="bg" x1="0" y1="0" x2="1" y2="1"><stop stop-color="#efe6df"/><stop offset=".55" stop-color="#d9bdb7"/><stop offset="1" stop-color="#b77775"/></linearGradient>
    <radialGradient id="petal" cx="42%" cy="34%" r="78%"><stop stop-color="#fffaf4"/><stop offset=".48" stop-color="#e9c9c2"/><stop offset="1" stop-color="#a65f67"/></radialGradient>
    <radialGradient id="core"><stop stop-color="#f3c7ab"/><stop offset=".42" stop-color="#7d3347"/><stop offset="1" stop-color="#351925"/></radialGradient>
    <filter id="soft"><feGaussianBlur stdDeviation="18"/></filter>
    <filter id="grain"><feTurbulence type="fractalNoise" baseFrequency=".75" numOctaves="3" seed="11"/><feColorMatrix values="1 0 0 0 0 0 1 0 0 0 0 0 1 0 0 0 0 0 .045 0"/></filter>
  </defs>
  <rect width="900" height="1125" fill="url(#bg)"/>
  <circle cx="720" cy="120" r="260" fill="#f5e9df" opacity=".32" filter="url(#soft)"/>
  <circle cx="126" cy="935" r="250" fill="#79434f" opacity=".16" filter="url(#soft)"/>
  <path d="M410 1180C410 910 472 620 626 280" fill="none" stroke="#324f41" stroke-width="13" stroke-linecap="round"/>
  <path d="M430 865C335 760 250 705 145 680" fill="none" stroke="#456553" stroke-width="8" stroke-linecap="round"/>
  <path d="M455 758C566 683 692 676 818 742C708 837 568 837 455 758Z" fill="#6f8b73" opacity=".88"/>
  <g transform="translate(626 292)">
    <ellipse rx="215" ry="126" fill="url(#petal)" transform="rotate(-14)"/><ellipse rx="205" ry="118" fill="url(#petal)" transform="rotate(42)"/><ellipse rx="196" ry="112" fill="url(#petal)" transform="rotate(96)"/><ellipse rx="188" ry="106" fill="url(#petal)" transform="rotate(150)"/><ellipse rx="178" ry="100" fill="url(#petal)" transform="rotate(204)"/><ellipse rx="168" ry="94" fill="url(#petal)" transform="rotate(258)"/><circle r="76" fill="url(#core)"/><circle r="20" fill="#f0c9b8" opacity=".9"/>
  </g>
  <g transform="translate(205 676) scale(.58)">
    <ellipse rx="215" ry="126" fill="url(#petal)" transform="rotate(-14)"/><ellipse rx="205" ry="118" fill="url(#petal)" transform="rotate(42)"/><ellipse rx="196" ry="112" fill="url(#petal)" transform="rotate(96)"/><ellipse rx="188" ry="106" fill="url(#petal)" transform="rotate(150)"/><ellipse rx="178" ry="100" fill="url(#petal)" transform="rotate(204)"/><circle r="72" fill="url(#core)"/>
  </g>
  <rect width="900" height="1125" filter="url(#grain)" opacity=".9"/>
</svg>
